<svg width="32" height="32" viewBox="0 0 32 32" fill="none" xmlns="http://www.w3.org/2000/svg">
  <!-- 背景圓形 -->
  <circle cx="16" cy="16" r="16" fill="#1E40AF"/>
  
  <!-- 雷達掃描線 -->
  <path d="M16 16 L16 4 A12 12 0 0 1 28 16 Z" fill="#3B82F6" opacity="0.3"/>
  
  <!-- 雷達圓圈 -->
  <circle cx="16" cy="16" r="12" stroke="#60A5FA" stroke-width="1" fill="none" opacity="0.6"/>
  <circle cx="16" cy="16" r="8" stroke="#60A5FA" stroke-width="1" fill="none" opacity="0.6"/>
  <circle cx="16" cy="16" r="4" stroke="#60A5FA" stroke-width="1" fill="none" opacity="0.6"/>
  
  <!-- 房屋圖示 -->
  <path d="M16 6 L8 12 L8 24 L24 24 L24 12 L16 6 Z" fill="#FEF3C7" stroke="#F59E0B" stroke-width="1"/>
  
  <!-- 房屋屋頂 -->
  <path d="M16 6 L10 10 L22 10 L16 6 Z" fill="#DC2626"/>
  
  <!-- 房屋窗戶 -->
  <rect x="12" y="14" width="3" height="3" fill="#1E40AF"/>
  <rect x="17" y="14" width="3" height="3" fill="#1E40AF"/>
  
  <!-- 房屋門 -->
  <rect x="14.5" y="18" width="3" height="6" fill="#92400E"/>
  
  <!-- 雷達中心點 -->
  <circle cx="16" cy="16" r="2" fill="#FEF3C7"/>
</svg>