<svg width="200" height="50" viewBox="0 0 200 50" fill="none" xmlns="http://www.w3.org/2000/svg">
  <circle cx="20" cy="20" r="20" fill="#1E40AF"/>
  <path d="M20 20 L20 8 A12 12 0 0 1 32 20 Z" fill="#3B82F6" opacity="0.3"/>
  <circle cx="20" cy="20" r="12" stroke="#60A5FA" stroke-width="1" fill="none" opacity="0.6"/>
  <circle cx="20" cy="20" r="8" stroke="#60A5FA" stroke-width="1" fill="none" opacity="0.6"/>
  <circle cx="20" cy="20" r="4" stroke="#60A5FA" stroke-width="1" fill="none" opacity="0.6"/>
  <path d="M20 10 L12 16 L12 28 L28 28 L28 16 L20 10 Z" fill="#FEF3C7" stroke="#F59E0B" stroke-width="1"/>
  <path d="M20 10 L14 14 L26 14 L20 10 Z" fill="#DC2626"/>
  <rect x="16" y="18" width="2" height="2" fill="#1E40AF"/>
  <rect x="22" y="18" width="2" height="2" fill="#1E40AF"/>
  <rect x="18.5" y="22" width="3" height="6" fill="#92400E"/>
  <circle cx="20" cy="20" r="1.5" fill="#FEF3C7"/>
  <text x="50" y="20" font-family="Arial, sans-serif" font-size="18" font-weight="bold" fill="#1E40AF">租屋雷達</text>
  <text x="50" y="35" font-family="Arial, sans-serif" font-size="10" fill="#6B7280">Rental Radar</text>
</svg>
